<svg width="30" height="30" viewBox="0 0 30 30" fill="none" xmlns="http://www.w3.org/2000/svg">
<g clip-path="url(#clip0_2_2105)">
<path d="M15 0.996094C22.7344 0.996094 28.9922 7.25391 28.9922 14.9766C28.9922 22.6992 22.7344 28.9687 15 28.9687C7.26563 28.9687 1.00781 22.7109 1.00781 14.9883C1.00781 7.26562 7.26563 0.996094 15 0.996094Z" fill="#E74D89"/>
<path d="M15 29.9648C6.72656 29.9648 0 23.25 0 14.9883C0 6.71484 6.72656 0 15 0C23.2734 0 30 6.71484 30 14.9766C30 23.2383 23.2734 29.9648 15 29.9648ZM27.6445 17.0273C27.2109 16.8867 23.6836 15.8437 19.6641 16.4766C21.3398 21.0703 22.0195 24.8203 22.1484 25.5937C25.0312 23.6602 27.082 20.5898 27.6445 17.0273ZM20.0039 26.7773C19.8164 25.6523 19.0664 21.7383 17.2734 17.0742C17.25 17.0859 17.2148 17.0977 17.1914 17.0977C9.96094 19.6172 7.37109 24.6211 7.13672 25.0898C9.30469 26.7773 12.0352 27.7852 15 27.7852C16.7695 27.7969 18.4688 27.4336 20.0039 26.7773ZM5.48438 23.5547C5.77734 23.0625 9.29297 17.25 15.9023 15.1055C16.0664 15.0469 16.2422 15 16.4062 14.9531C16.0898 14.2266 15.7383 13.5 15.3633 12.7852C8.96484 14.6953 2.75391 14.6133 2.19141 14.6016C2.19141 14.7305 2.17969 14.8594 2.17969 14.9883C2.19141 18.2812 3.43359 21.2812 5.48438 23.5547ZM2.46094 12.375C3.03516 12.3867 8.30859 12.4102 14.3086 10.8164C12.1875 7.04297 9.89062 3.87891 9.5625 3.42187C5.96484 5.10937 3.29297 8.41406 2.46094 12.375ZM12 2.55469C12.3516 3.02344 14.6836 6.1875 16.7812 10.043C21.3398 8.33203 23.2617 5.75391 23.4961 5.42578C21.2344 3.42187 18.2578 2.20312 15 2.20312C13.9688 2.20312 12.9609 2.33203 12 2.55469ZM24.9141 6.90234C24.6445 7.26562 22.5 10.0195 17.7656 11.9531C18.0586 12.5625 18.3516 13.1836 18.6211 13.8047C18.7148 14.0273 18.8086 14.25 18.9023 14.4609C23.168 13.9219 27.3984 14.7891 27.8203 14.8711C27.7852 11.8594 26.707 9.08203 24.9141 6.90234Z" fill="#B2215A"/>
</g>
<defs>
<clipPath id="clip0_2_2105">
<rect width="30" height="30" fill="white"/>
</clipPath>
</defs>
</svg>
