<svg width="31" height="30" viewBox="0 0 31 30" fill="none" xmlns="http://www.w3.org/2000/svg">
<g clip-path="url(#clip0_2_2136)">
<path d="M30.6322 15C30.6322 6.67191 23.8573 -0.0793457 15.5 -0.0793457C7.14262 -0.0793457 0.367676 6.67191 0.367676 15C0.367676 22.5266 5.90132 28.765 13.1355 29.8962V19.3589H9.29336V15H13.1355V11.6779C13.1355 7.89858 15.3947 5.81104 18.8512 5.81104C20.5068 5.81104 22.2386 6.10555 22.2386 6.10555V9.81649H20.3304C18.4506 9.81649 17.8644 10.9789 17.8644 12.1714V15H22.0612L21.3903 19.3589H17.8644V29.8962C25.0986 28.765 30.6322 22.5266 30.6322 15Z" fill="#1877F2"/>
<path d="M21.3904 19.3589L22.0613 15H17.8645V12.1714C17.8645 10.9789 18.4507 9.81649 20.3305 9.81649H22.2386V6.10555C22.2386 6.10555 20.5069 5.81104 18.8513 5.81104C15.3948 5.81104 13.1356 7.89857 13.1356 11.6779V15H9.29346V19.3589H13.1356V29.8962C13.9178 30.0183 14.7083 30.0796 15.5001 30.0794C16.3044 30.0794 17.094 30.0166 17.8645 29.8962V19.3589H21.3904Z" fill="white"/>
</g>
<defs>
<clipPath id="clip0_2_2136">
<rect width="30" height="30" fill="white" transform="translate(0.5)"/>
</clipPath>
</defs>
</svg>
