<svg width="20" height="30" viewBox="0 0 20 30" fill="none" xmlns="http://www.w3.org/2000/svg">
<g clip-path="url(#clip0_2_2066)">
<path d="M10 15C10 13.6739 10.5268 12.4021 11.4645 11.4645C12.4021 10.5268 13.6739 10 15 10C16.3261 10 17.5979 10.5268 18.5355 11.4645C19.4732 12.4021 20 13.6739 20 15C20 16.3261 19.4732 17.5979 18.5355 18.5355C17.5979 19.4732 16.3261 20 15 20C13.6739 20 12.4021 19.4732 11.4645 18.5355C10.5268 17.5979 10 16.3261 10 15Z" fill="#1ABCFE"/>
<path d="M0 25C0 23.6739 0.526784 22.4021 1.46447 21.4645C2.40215 20.5268 3.67392 20 5 20H10V25C10 26.3261 9.47322 27.5979 8.53554 28.5355C7.59785 29.4732 6.32608 30 5 30C3.67392 30 2.40215 29.4732 1.46447 28.5355C0.526784 27.5979 0 26.3261 0 25H0Z" fill="#0ACF83"/>
<path d="M10 0V10H15C16.3261 10 17.5979 9.47322 18.5355 8.53554C19.4732 7.59785 20 6.32608 20 5C20 3.67392 19.4732 2.40215 18.5355 1.46447C17.5979 0.526784 16.3261 0 15 0L10 0Z" fill="#FF7262"/>
<path d="M0 5C0 6.32608 0.526784 7.59785 1.46447 8.53554C2.40215 9.47322 3.67392 10 5 10H10V0H5C3.67392 0 2.40215 0.526784 1.46447 1.46447C0.526784 2.40215 0 3.67392 0 5H0Z" fill="#F24E1E"/>
<path d="M0 15C0 16.3261 0.526784 17.5979 1.46447 18.5355C2.40215 19.4732 3.67392 20 5 20H10V10H5C3.67392 10 2.40215 10.5268 1.46447 11.4645C0.526784 12.4021 0 13.6739 0 15H0Z" fill="#A259FF"/>
</g>
<defs>
<clipPath id="clip0_2_2066">
<rect width="20" height="30" fill="white"/>
</clipPath>
</defs>
</svg>
