<svg width="34" height="30" viewBox="0 0 34 30" fill="none" xmlns="http://www.w3.org/2000/svg">
<g clip-path="url(#clip0_2_2111)">
<path d="M2.93553 25.7682L4.39699 28.3394C4.70067 28.8807 5.13721 29.306 5.64967 29.6154L10.8692 20.4131H0.430176C0.430176 21.0124 0.582016 21.6117 0.885695 22.153L2.93553 25.7682Z" fill="#0066DA"/>
<path d="M16.9997 9.58689L11.7802 0.384613C11.2677 0.693933 10.8312 1.11925 10.5275 1.66056L0.885695 18.6732C0.587601 19.2028 0.430573 19.8026 0.430176 20.4131H10.8692L16.9997 9.58689Z" fill="#00AC47"/>
<path d="M28.3501 29.6154C28.8626 29.306 29.2991 28.8807 29.6028 28.3394L30.2102 27.2761L33.1141 22.153C33.4178 21.6117 33.5696 21.0124 33.5696 20.4131H23.1299L25.3513 24.8596L28.3501 29.6154Z" fill="#EA4335"/>
<path d="M16.9998 9.58688L22.2193 0.384604C21.7068 0.0752839 21.1184 -0.0793762 20.5111 -0.0793762H13.4885C12.8811 -0.0793762 12.2927 0.0946165 11.7803 0.384604L16.9998 9.58688Z" fill="#00832D"/>
<path d="M23.1305 20.4131H10.8694L5.6499 29.6154C6.16236 29.9247 6.75074 30.0793 7.3581 30.0793H26.6418C27.2491 30.0793 27.8375 29.9054 28.35 29.6154L23.1305 20.4131Z" fill="#2684FC"/>
<path d="M28.2931 10.1669L23.4722 1.66056C23.1685 1.11925 22.732 0.693933 22.2195 0.384613L17 9.58689L23.1305 20.4131H33.5505C33.5505 19.8138 33.3987 19.2145 33.095 18.6732L28.2931 10.1669Z" fill="#FFBA00"/>
</g>
<defs>
<clipPath id="clip0_2_2111">
<rect width="33.0769" height="30" fill="white" transform="translate(0.461426)"/>
</clipPath>
</defs>
</svg>
