<svg width="34" height="30" viewBox="0 0 34 30" fill="none" xmlns="http://www.w3.org/2000/svg">
<g clip-path="url(#clip0_2_2074)">
<path fill-rule="evenodd" clip-rule="evenodd" d="M17 30L23.0176 11.5446H10.9824L17 30Z" fill="#E24329"/>
<path fill-rule="evenodd" clip-rule="evenodd" d="M16.9999 30L10.9823 11.5446H2.54883L16.9999 30Z" fill="#FC6D26"/>
<path fill-rule="evenodd" clip-rule="evenodd" d="M2.54879 11.5446L0.720151 17.153C0.638855 17.4024 0.638856 17.671 0.720154 17.9203C0.801452 18.1697 0.959875 18.387 1.17272 18.5411L17 30L2.54879 11.5446Z" fill="#FCA326"/>
<path fill-rule="evenodd" clip-rule="evenodd" d="M2.54883 11.5448H10.9823L7.35792 0.428965C7.1715 -0.143066 6.35966 -0.142911 6.17309 0.428965L2.54883 11.5448Z" fill="#E24329"/>
<path fill-rule="evenodd" clip-rule="evenodd" d="M17 30L23.0176 11.5446H31.4511L17 30Z" fill="#FC6D26"/>
<path fill-rule="evenodd" clip-rule="evenodd" d="M31.4511 11.5446L33.2797 17.153C33.361 17.4024 33.361 17.671 33.2797 17.9203C33.1984 18.1697 33.04 18.387 32.8272 18.5411L17 30L31.4511 11.5446Z" fill="#FCA326"/>
<path fill-rule="evenodd" clip-rule="evenodd" d="M31.4511 11.5448H23.0176L26.642 0.428965C26.8284 -0.143066 27.6404 -0.142911 27.8268 0.428965L31.4511 11.5448Z" fill="#E24329"/>
</g>
<defs>
<clipPath id="clip0_2_2074">
<rect width="32.6814" height="30" fill="white" transform="translate(0.65918)"/>
</clipPath>
</defs>
</svg>
