<svg width="30" height="30" viewBox="0 0 30 30" fill="none" xmlns="http://www.w3.org/2000/svg">
<g clip-path="url(#clip0_2_2100)">
<path d="M33.0099 28.1668C33.0845 28.1675 33.1584 28.1527 33.227 28.1231C33.2957 28.0935 33.3577 28.0499 33.4091 27.9949C33.4606 27.9399 33.5004 27.8747 33.5261 27.8034C33.5518 27.732 33.5628 27.6561 33.5585 27.5802C33.5585 27.1642 33.3123 26.9655 32.8073 26.9655H31.9911V29.1434H32.2981V28.194H32.6753L32.6839 28.2056L33.2693 29.1434H33.5975L32.9678 28.1728L33.0099 28.1668ZM32.6549 27.9486H32.299V27.2123H32.7501C32.9832 27.2123 33.2489 27.2511 33.2489 27.5622C33.2489 27.9199 32.98 27.9486 32.6531 27.9486M25.0028 25.4373H20.6501V18.4883C20.6501 16.8312 20.6211 14.6981 18.3863 14.6981C16.1193 14.6981 15.7724 16.5035 15.7724 18.3677V25.4369H11.4197V11.1468H15.5983V13.0997H15.6568C16.075 12.3708 16.6793 11.7712 17.4053 11.3647C18.1313 10.9582 18.9519 10.76 19.7796 10.7914C24.1912 10.7914 25.0046 13.7496 25.0046 17.5981L25.0028 25.4373ZM6.50847 9.19346C6.00889 9.19355 5.52051 9.04262 5.10507 8.75975C4.68964 8.47687 4.36582 8.07477 4.17455 7.60427C3.98329 7.13378 3.93318 6.61603 4.03055 6.11651C4.12793 5.61698 4.36842 5.15811 4.72161 4.79792C5.0748 4.43773 5.52483 4.19239 6.01479 4.09295C6.50476 3.9935 7.01264 4.0444 7.47423 4.23921C7.93581 4.43403 8.33036 4.76401 8.60799 5.18742C8.88561 5.61083 9.03384 6.10866 9.03393 6.61796C9.03399 6.95612 8.96872 7.29098 8.84183 7.60342C8.71495 7.91586 8.52894 8.19977 8.29443 8.43892C8.05992 8.67808 7.7815 8.86781 7.47506 8.99727C7.16863 9.12673 6.84018 9.1934 6.50847 9.19346ZM8.68481 25.4373H4.3276V11.1468H8.68481V25.4373ZM27.1728 -0.0773366H2.14038C1.57221 -0.0838731 1.02475 0.139813 0.618276 0.544568C0.211806 0.949323 -0.0204096 1.50203 -0.0273438 2.08124V27.7064C-0.0206469 28.2859 0.21142 28.839 0.617876 29.2442C1.02433 29.6493 1.57193 29.8735 2.14038 29.8673H27.1728C27.7424 29.8746 28.2915 29.6511 28.6996 29.2459C29.1076 28.8408 29.3413 28.287 29.3491 27.7064V2.07939C29.341 1.49904 29.1072 0.945698 28.6992 0.540953C28.2911 0.136208 27.7421 -0.0868398 27.1728 -0.0791855" fill="#0A66C2"/>
</g>
<defs>
<clipPath id="clip0_2_2100">
<rect width="30" height="30" fill="white"/>
</clipPath>
</defs>
</svg>
