<svg width="30" height="30" viewBox="0 0 30 30" fill="none" xmlns="http://www.w3.org/2000/svg">
<g clip-path="url(#clip0_2_2120)">
<path d="M15.0002 30.0546C23.3507 30.0546 30.12 23.3089 30.12 14.9876C30.12 6.66636 23.3507 -0.0793457 15.0002 -0.0793457C6.64975 -0.0793457 -0.119629 6.66636 -0.119629 14.9876C-0.119629 23.3089 6.64975 30.0546 15.0002 30.0546Z" fill="white"/>
<path d="M15.0002 -0.0793457C6.65007 -0.0793457 -0.119629 6.66669 -0.119629 14.9876C-0.119629 21.374 3.86255 26.8304 9.48737 29.0253C9.35049 27.8348 9.23849 25.9995 9.53715 24.6974C9.81093 23.5194 11.3042 17.2074 11.3042 17.2074C11.3042 17.2074 10.8562 16.3021 10.8562 14.9752C10.8562 12.8795 12.0758 11.317 13.594 11.317C14.8882 11.317 15.5104 12.2842 15.5104 13.4375C15.5104 14.7272 14.6891 16.6617 14.2535 18.4598C13.8927 19.9603 15.0126 21.188 16.4935 21.188C19.1815 21.188 21.2472 18.3606 21.2472 14.2932C21.2472 10.6845 18.6464 8.16718 14.9255 8.16718C10.6198 8.16718 8.09361 11.379 8.09361 14.7024C8.09361 15.9921 8.59138 17.381 9.2136 18.1374C9.33804 18.2862 9.35049 18.4226 9.31315 18.5714C9.20116 19.0427 8.93983 20.0719 8.89005 20.2828C8.82783 20.5556 8.66605 20.6176 8.37983 20.4812C6.4883 19.6007 5.30609 16.8601 5.30609 14.6404C5.30609 9.89089 8.7656 5.52581 15.2989 5.52581C20.5379 5.52581 24.6196 9.24605 24.6196 14.2312C24.6196 19.4271 21.3344 23.6062 16.7797 23.6062C15.2491 23.6062 13.8055 22.8125 13.3202 21.8701C13.3202 21.8701 12.5611 24.747 12.3745 25.4539C12.0385 26.7684 11.1176 28.4053 10.4954 29.4097C11.914 29.8438 13.4073 30.0794 14.9753 30.0794C23.3254 30.0794 30.0951 23.3333 30.0951 15.0124C30.12 6.66668 23.3503 -0.0793457 15.0002 -0.0793457Z" fill="#E60023"/>
</g>
<defs>
<clipPath id="clip0_2_2120">
<rect width="30" height="30" fill="white"/>
</clipPath>
</defs>
</svg>
