<svg width="81" height="81" viewBox="0 0 81 81" fill="none" xmlns="http://www.w3.org/2000/svg">
<path d="M37.4349 8.94607C38.4353 6.02628 42.5647 6.02627 43.5651 8.94606L46.9037 18.6905C47.5357 20.5352 49.6422 21.4077 51.3936 20.5502L60.6446 16.0207C63.4166 14.6634 66.3366 17.5834 64.9793 20.3553L60.4498 29.6064C59.5923 31.3578 60.4648 33.4643 62.3095 34.0963L72.0539 37.4349C74.9737 38.4353 74.9737 42.5647 72.0539 43.5651L62.3095 46.9037C60.4648 47.5357 59.5923 49.6422 60.4498 51.3936L64.9793 60.6446C66.3366 63.4166 63.4166 66.3366 60.6447 64.9793L51.3936 60.4498C49.6422 59.5923 47.5357 60.4648 46.9037 62.3095L43.5651 72.0539C42.5647 74.9737 38.4353 74.9737 37.4349 72.0539L34.0963 62.3095C33.4643 60.4648 31.3578 59.5923 29.6064 60.4498L20.3554 64.9793C17.5834 66.3366 14.6634 63.4166 16.0207 60.6447L20.5502 51.3936C21.4077 49.6422 20.5352 47.5357 18.6905 46.9037L8.94607 43.5651C6.02628 42.5647 6.02627 38.4353 8.94606 37.4349L18.6905 34.0963C20.5352 33.4643 21.4077 31.3578 20.5502 29.6064L16.0207 20.3554C14.6634 17.5834 17.5834 14.6634 20.3553 16.0207L29.6064 20.5502C31.3578 21.4077 33.4643 20.5352 34.0963 18.6905L37.4349 8.94607Z" fill="#FD5812"/>
<path d="M30.316 28.5709H31.3377L33.7401 34.4388H33.823L36.2254 28.5709H37.2471V35.64H36.4463V30.2691H36.3772L34.1681 35.64H33.395L31.1859 30.2691H31.1168V35.64H30.316V28.5709ZM41.0068 35.7505C40.5282 35.7505 40.1082 35.6365 39.747 35.4087C39.388 35.1809 39.1072 34.8622 38.9047 34.4526C38.7045 34.043 38.6044 33.5644 38.6044 33.0167C38.6044 32.4644 38.7045 31.9823 38.9047 31.5704C39.1072 31.1585 39.388 30.8387 39.747 30.6109C40.1082 30.3831 40.5282 30.2691 41.0068 30.2691C41.4855 30.2691 41.9043 30.3831 42.2633 30.6109C42.6245 30.8387 42.9053 31.1585 43.1055 31.5704C43.308 31.9823 43.4092 32.4644 43.4092 33.0167C43.4092 33.5644 43.308 34.043 43.1055 34.4526C42.9053 34.8622 42.6245 35.1809 42.2633 35.4087C41.9043 35.6365 41.4855 35.7505 41.0068 35.7505ZM41.0068 35.0187C41.3704 35.0187 41.6696 34.9255 41.9043 34.7391C42.139 34.5527 42.3127 34.3076 42.4255 34.0039C42.5382 33.7001 42.5946 33.3711 42.5946 33.0167C42.5946 32.6623 42.5382 32.3321 42.4255 32.0261C42.3127 31.72 42.139 31.4726 41.9043 31.2839C41.6696 31.0953 41.3704 31.0009 41.0068 31.0009C40.6433 31.0009 40.3441 31.0953 40.1094 31.2839C39.8747 31.4726 39.7009 31.72 39.5882 32.0261C39.4754 32.3321 39.419 32.6623 39.419 33.0167C39.419 33.3711 39.4754 33.7001 39.5882 34.0039C39.7009 34.3076 39.8747 34.5527 40.1094 34.7391C40.3441 34.9255 40.6433 35.0187 41.0068 35.0187ZM48.4082 31.5256L47.6764 31.7327C47.6304 31.6107 47.5625 31.4922 47.4727 31.3771C47.3853 31.2598 47.2656 31.1631 47.1138 31.0872C46.9619 31.0113 46.7674 30.9733 46.5304 30.9733C46.206 30.9733 45.9356 31.0481 45.7193 31.1977C45.5053 31.3449 45.3983 31.5325 45.3983 31.7603C45.3983 31.9628 45.4719 32.1227 45.6192 32.2401C45.7664 32.3574 45.9966 32.4552 46.3095 32.5335L47.0965 32.7268C47.5705 32.8418 47.9238 33.0179 48.1562 33.2549C48.3886 33.4896 48.5048 33.7922 48.5048 34.1627C48.5048 34.4664 48.4174 34.738 48.2425 34.9773C48.0699 35.2166 47.8283 35.4053 47.5176 35.5434C47.207 35.6814 46.8457 35.7505 46.4338 35.7505C45.893 35.7505 45.4454 35.6331 45.0911 35.3984C44.7367 35.1637 44.5123 34.8208 44.418 34.3698L45.1912 34.1765C45.2648 34.4618 45.404 34.6758 45.6088 34.8185C45.8159 34.9612 46.0863 35.0325 46.42 35.0325C46.7997 35.0325 47.1011 34.952 47.3243 34.7909C47.5498 34.6275 47.6626 34.4319 47.6626 34.2041C47.6626 34.02 47.5982 33.8658 47.4693 33.7416C47.3404 33.615 47.1425 33.5207 46.8756 33.4585L45.992 33.2514C45.5064 33.1364 45.1497 32.958 44.9219 32.7164C44.6964 32.4725 44.5837 32.1676 44.5837 31.8017C44.5837 31.5026 44.6677 31.2379 44.8356 31.0078C45.0059 30.7777 45.2372 30.5971 45.5294 30.4659C45.824 30.3347 46.1576 30.2691 46.5304 30.2691C47.0551 30.2691 47.467 30.3842 47.7661 30.6143C48.0676 30.8444 48.2816 31.1482 48.4082 31.5256ZM52.0368 30.3382V31.0285H49.2892V30.3382H52.0368ZM50.09 29.068H50.9046V34.1212C50.9046 34.3514 50.938 34.5239 51.0047 34.639C51.0737 34.7518 51.1612 34.8277 51.267 34.8668C51.3752 34.9036 51.4891 34.922 51.6087 34.922C51.6985 34.922 51.7721 34.9174 51.8297 34.9082C51.8872 34.8967 51.9332 34.8875 51.9677 34.8806L52.1334 35.6124C52.0782 35.6331 52.0011 35.6538 51.9021 35.6745C51.8032 35.6975 51.6778 35.709 51.5259 35.709C51.2958 35.709 51.0703 35.6596 50.8494 35.5606C50.6308 35.4617 50.449 35.3109 50.304 35.1084C50.1613 34.9059 50.09 34.6505 50.09 34.3422V29.068ZM24.4024 48.64V41.5709H26.791C27.3456 41.5709 27.7989 41.671 28.151 41.8712C28.5053 42.0691 28.7677 42.3372 28.9379 42.6755C29.1082 43.0137 29.1934 43.3911 29.1934 43.8076C29.1934 44.2241 29.1082 44.6027 28.9379 44.9432C28.77 45.2838 28.5099 45.5553 28.1579 45.7578C27.8058 45.958 27.3548 46.0581 26.8048 46.0581H25.0928V45.2987H26.7772C27.1569 45.2987 27.4618 45.2332 27.6919 45.102C27.922 44.9708 28.0888 44.7936 28.1924 44.5704C28.2982 44.3449 28.3512 44.0907 28.3512 43.8076C28.3512 43.5246 28.2982 43.2714 28.1924 43.0482C28.0888 42.825 27.9208 42.6501 27.6884 42.5236C27.456 42.3947 27.1477 42.3303 26.7634 42.3303H25.2584V48.64H24.4024ZM32.5588 48.7505C32.0802 48.7505 31.6602 48.6365 31.2989 48.4087C30.9399 48.1809 30.6592 47.8622 30.4567 47.4526C30.2565 47.043 30.1564 46.5644 30.1564 46.0167C30.1564 45.4644 30.2565 44.9823 30.4567 44.5704C30.6592 44.1585 30.9399 43.8387 31.2989 43.6109C31.6602 43.3831 32.0802 43.2691 32.5588 43.2691C33.0374 43.2691 33.4562 43.3831 33.8152 43.6109C34.1765 43.8387 34.4572 44.1585 34.6574 44.5704C34.8599 44.9823 34.9612 45.4644 34.9612 46.0167C34.9612 46.5644 34.8599 47.043 34.6574 47.4526C34.4572 47.8622 34.1765 48.1809 33.8152 48.4087C33.4562 48.6365 33.0374 48.7505 32.5588 48.7505ZM32.5588 48.0187C32.9224 48.0187 33.2215 47.9255 33.4562 47.7391C33.6909 47.5527 33.8647 47.3076 33.9774 47.0039C34.0902 46.7001 34.1466 46.3711 34.1466 46.0167C34.1466 45.6623 34.0902 45.3321 33.9774 45.0261C33.8647 44.72 33.6909 44.4726 33.4562 44.2839C33.2215 44.0953 32.9224 44.0009 32.5588 44.0009C32.1952 44.0009 31.8961 44.0953 31.6613 44.2839C31.4266 44.4726 31.2529 44.72 31.1401 45.0261C31.0274 45.3321 30.971 45.6623 30.971 46.0167C30.971 46.3711 31.0274 46.7001 31.1401 47.0039C31.2529 47.3076 31.4266 47.5527 31.6613 47.7391C31.8961 47.9255 32.1952 48.0187 32.5588 48.0187ZM36.2046 50.6282V43.3382H36.9916V44.1804H37.0883C37.1481 44.0884 37.231 43.971 37.3368 43.8283C37.445 43.6834 37.5991 43.5545 37.7993 43.4417C38.0018 43.3267 38.2757 43.2691 38.6208 43.2691C39.0673 43.2691 39.4608 43.3808 39.8013 43.604C40.1419 43.8272 40.4077 44.1436 40.5987 44.5532C40.7897 44.9628 40.8852 45.446 40.8852 46.0029C40.8852 46.5644 40.7897 47.0511 40.5987 47.463C40.4077 47.8726 40.143 48.1901 39.8048 48.4156C39.4665 48.6388 39.0765 48.7505 38.6347 48.7505C38.2941 48.7505 38.0214 48.6941 37.8166 48.5813C37.6118 48.4663 37.4542 48.3362 37.3437 48.1913C37.2333 48.044 37.1481 47.922 37.0883 47.8254H37.0193V50.6282H36.2046ZM37.0054 45.9891C37.0054 46.3895 37.0641 46.7427 37.1815 47.0488C37.2988 47.3525 37.4703 47.5907 37.6958 47.7633C37.9213 47.9336 38.1974 48.0187 38.5242 48.0187C38.8648 48.0187 39.149 47.9289 39.3768 47.7495C39.6069 47.5677 39.7795 47.3237 39.8945 47.0177C40.0119 46.7093 40.0706 46.3665 40.0706 45.9891C40.0706 45.6163 40.013 45.2803 39.898 44.9812C39.7852 44.6797 39.6138 44.4416 39.3837 44.2667C39.1559 44.0895 38.8694 44.0009 38.5242 44.0009C38.1928 44.0009 37.9144 44.0849 37.6889 44.2529C37.4634 44.4186 37.2931 44.651 37.178 44.9501C37.063 45.247 37.0054 45.5933 37.0054 45.9891ZM45.469 46.4723V43.3382H46.2836V48.64H45.469V47.7426H45.4138C45.2895 48.0118 45.0962 48.2408 44.8339 48.4294C44.5716 48.6158 44.2402 48.709 43.8398 48.709C43.5085 48.709 43.2139 48.6365 42.9562 48.4916C42.6985 48.3443 42.496 48.1234 42.3487 47.8288C42.2014 47.532 42.1278 47.1581 42.1278 46.707V43.3382H42.9424V46.6518C42.9424 47.0384 43.0505 47.3468 43.2668 47.5769C43.4854 47.807 43.7639 47.922 44.1022 47.922C44.3047 47.922 44.5106 47.8703 44.72 47.7667C44.9317 47.6632 45.1089 47.5044 45.2516 47.2904C45.3965 47.0764 45.469 46.8037 45.469 46.4723ZM48.5902 41.5709V48.64H47.7756V41.5709H48.5902ZM51.6424 48.7643C51.3064 48.7643 51.0015 48.701 50.7277 48.5744C50.4539 48.4456 50.2364 48.2603 50.0753 48.0187C49.9142 47.7748 49.8337 47.4802 49.8337 47.1351C49.8337 46.8313 49.8935 46.5851 50.0132 46.3964C50.1329 46.2054 50.2928 46.0558 50.493 45.9477C50.6932 45.8395 50.9141 45.759 51.1557 45.7061C51.3996 45.6508 51.6447 45.6071 51.8909 45.5749C52.2131 45.5335 52.4743 45.5024 52.6745 45.4817C52.877 45.4587 53.0242 45.4207 53.1163 45.3678C53.2106 45.3149 53.2578 45.2228 53.2578 45.0916V45.064C53.2578 44.7235 53.1646 44.4588 52.9782 44.2701C52.7941 44.0814 52.5145 43.9871 52.1394 43.9871C51.7506 43.9871 51.4457 44.0722 51.2247 44.2425C51.0038 44.4128 50.8485 44.5946 50.7588 44.7879L49.9856 44.5118C50.1236 44.1896 50.3077 43.9388 50.5379 43.7593C50.7703 43.5775 51.0234 43.4509 51.2972 43.3796C51.5734 43.306 51.8449 43.2691 52.1118 43.2691C52.2821 43.2691 52.4777 43.2899 52.6986 43.3313C52.9218 43.3704 53.137 43.4521 53.3441 43.5763C53.5535 43.7006 53.7272 43.8882 53.8653 44.139C54.0034 44.3898 54.0724 44.7258 54.0724 45.1469V48.64H53.2578V47.922H53.2164C53.1611 48.0371 53.0691 48.1602 52.9402 48.2914C52.8114 48.4225 52.6399 48.5341 52.4259 48.6262C52.2119 48.7182 51.9508 48.7643 51.6424 48.7643ZM51.7667 48.0325C52.0888 48.0325 52.3604 47.9692 52.5813 47.8427C52.8045 47.7161 52.9725 47.5527 53.0852 47.3525C53.2003 47.1523 53.2578 46.9418 53.2578 46.7209V45.9753C53.2233 46.0167 53.1473 46.0547 53.03 46.0892C52.9149 46.1214 52.7815 46.1502 52.6296 46.1755C52.48 46.1985 52.3339 46.2192 52.1912 46.2376C52.0509 46.2537 51.9369 46.2675 51.8495 46.279C51.6378 46.3066 51.4399 46.3515 51.2558 46.4136C51.074 46.4735 50.9267 46.5644 50.814 46.6863C50.7035 46.806 50.6483 46.9694 50.6483 47.1765C50.6483 47.4595 50.753 47.6735 50.9624 47.8185C51.1741 47.9612 51.4422 48.0325 51.7667 48.0325ZM55.5592 48.64V43.3382H56.3462V44.139H56.4014C56.4981 43.8766 56.673 43.6638 56.9261 43.5004C57.1792 43.337 57.4646 43.2553 57.7821 43.2553C57.8419 43.2553 57.9167 43.2565 58.0065 43.2588C58.0962 43.2611 58.1641 43.2645 58.2101 43.2691V44.0976C58.1825 44.0907 58.1192 44.0803 58.0203 44.0665C57.9236 44.0504 57.8212 44.0423 57.7131 44.0423C57.4554 44.0423 57.2252 44.0964 57.0227 44.2046C56.8225 44.3104 56.6638 44.4577 56.5464 44.6464C56.4314 44.8328 56.3738 45.0456 56.3738 45.2849V48.64H55.5592Z" fill="white"/>
</svg>
