<svg width="31" height="30" viewBox="0 0 31 30" fill="none" xmlns="http://www.w3.org/2000/svg">
<g clip-path="url(#clip0_2_2126)">
<path d="M24.4511 13.2888C19.5734 10.4021 11.5276 10.1367 6.87117 11.545C6.12322 11.7711 5.33258 11.3505 5.10612 10.6053C4.87952 9.85973 5.30114 9.07226 6.04936 8.84578C11.3948 7.22896 20.2804 7.5412 25.8958 10.8629C26.5686 11.2609 26.7889 12.1264 26.3903 12.7954C25.9914 13.4657 25.122 13.6868 24.451 13.2888M24.2914 17.5642C23.9492 18.1176 23.223 18.2911 22.6685 17.9514C18.6021 15.4605 12.4009 14.7388 7.58985 16.1941C6.96604 16.3818 6.30699 16.0315 6.11753 15.4108C6.02721 15.1124 6.0593 14.7905 6.20678 14.5157C6.35425 14.2409 6.60507 14.0355 6.90424 13.9447C12.4001 12.2827 19.2325 13.0876 23.9032 15.9479C24.4578 16.2882 24.6323 17.0121 24.2914 17.5642ZM22.4397 21.6702C22.3753 21.7757 22.2906 21.8675 22.1905 21.9403C22.0904 22.0132 21.9769 22.0656 21.8564 22.0947C21.7359 22.1237 21.6109 22.1288 21.4885 22.1096C21.366 22.0905 21.2486 22.0474 21.1429 21.983C17.5895 19.8188 13.1168 19.3301 7.84938 20.5291C7.72869 20.5566 7.60374 20.5601 7.48168 20.5395C7.35961 20.5188 7.24282 20.4745 7.13797 20.4088C7.03312 20.3432 6.94228 20.2577 6.87062 20.1571C6.79896 20.0564 6.74789 19.9428 6.72034 19.8225C6.69259 19.7022 6.68892 19.5776 6.70956 19.4558C6.7302 19.3341 6.77474 19.2177 6.84061 19.1131C6.90649 19.0086 6.99242 18.918 7.09347 18.8466C7.19453 18.7752 7.30873 18.7243 7.42953 18.697C13.1937 17.384 18.1382 17.9491 22.1268 20.3778C22.2325 20.4422 22.3245 20.5266 22.3974 20.6264C22.4704 20.7262 22.5229 20.8394 22.552 20.9594C22.5811 21.0794 22.5861 21.204 22.5669 21.3259C22.5476 21.4479 22.5043 21.5649 22.4397 21.6702ZM15.4997 -0.0793762C7.14276 -0.0793762 0.367676 6.67175 0.367676 14.9997C0.367676 23.3285 7.14276 30.0793 15.4998 30.0793C23.8573 30.0793 30.6322 23.3285 30.6322 14.9997C30.6322 6.67189 23.8573 -0.0793762 15.4997 -0.0793762Z" fill="#1ED660"/>
</g>
<defs>
<clipPath id="clip0_2_2126">
<rect width="30" height="30" fill="white" transform="translate(0.5)"/>
</clipPath>
</defs>
</svg>
