<svg width="50" height="50" viewBox="0 0 50 50" fill="none" xmlns="http://www.w3.org/2000/svg">
<path d="M21.8862 7.18299C23.0676 4.45768 26.9324 4.45768 28.1138 7.18299C28.9258 9.05599 31.1956 9.7935 32.9534 8.75546C35.5111 7.24507 38.6378 9.51676 37.9917 12.416C37.5477 14.4085 38.9505 16.3394 40.9828 16.5328C43.9398 16.8142 45.1341 20.4899 42.9072 22.4557C41.3768 23.8067 41.3768 26.1933 42.9072 27.5443C45.1341 29.5101 43.9398 33.1858 40.9828 33.4672C38.9505 33.6606 37.5477 35.5914 37.9917 37.584C38.6378 40.4832 35.5111 42.7549 32.9534 41.2445C31.1956 40.2065 28.9258 40.944 28.1138 42.817C26.9324 45.5423 23.0676 45.5423 21.8862 42.817C21.0742 40.944 18.8044 40.2065 17.0466 41.2445C14.4889 42.7549 11.3622 40.4832 12.0083 37.584C12.4523 35.5914 11.0495 33.6606 9.01725 33.4672C6.06024 33.1858 4.86594 29.5101 7.09278 27.5443C8.62321 26.1933 8.62321 23.8067 7.09278 22.4557C4.86594 20.4899 6.06024 16.8142 9.01725 16.5328C11.0495 16.3394 12.4523 14.4085 12.0083 12.416C11.3622 9.51676 14.4889 7.24507 17.0466 8.75546C18.8044 9.7935 21.0742 9.05599 21.8862 7.18299Z" fill="#3584FC"/>
<mask id="mask0_487_16977" style="mask-type:alpha" maskUnits="userSpaceOnUse" x="13" y="13" width="24" height="24">
<rect x="13" y="13" width="24" height="24" fill="#D9D9D9"/>
</mask>
<g mask="url(#mask0_487_16977)">
<path d="M22.5516 31L16.8516 25.3L18.2766 23.875L22.5516 28.15L31.7266 18.975L33.1516 20.4L22.5516 31Z" fill="white"/>
</g>
</svg>
