<svg width="100" height="26" viewBox="0 0 100 26" fill="none" xmlns="http://www.w3.org/2000/svg">
<path d="M12.5172 6.25862C12.5172 9.71516 9.71516 12.5172 6.25862 12.5172C2.80208 12.5172 0 9.71516 0 6.25862C0 2.80208 2.80208 0 6.25862 0C9.71516 0 12.5172 2.80208 12.5172 6.25862Z" fill="#605DFF"/>
<path d="M13.3448 6.25862C13.3448 2.80208 16.1469 0 19.6035 0C23.06 0 25.8621 2.80208 25.8621 6.25862C25.8621 9.71516 23.06 12.5172 19.6035 12.5172H13.3448V6.25862Z" fill="#605DFF"/>
<path d="M0 19.6035C0 16.1469 2.80208 13.3448 6.25862 13.3448H12.5172V19.6034C12.5172 23.06 9.71516 25.8621 6.25862 25.8621C2.80208 25.8621 0 23.06 0 19.6035Z" fill="#605DFF"/>
<path d="M25.8621 19.6035C25.8621 23.06 23.06 25.8621 19.6035 25.8621C16.1469 25.8621 13.3448 23.06 13.3448 19.6035C13.3448 16.1469 16.1469 13.3448 19.6035 13.3448C23.06 13.3448 25.8621 16.1469 25.8621 19.6035Z" fill="#605DFF"/>
<path d="M46.15 7.02586H40.2724L41.769 5.23965V21.931H38.0396V5.23965L39.5845 7.02586H33.6707V4.12931H46.15V7.02586ZM46.9807 21.931V9.11379H50.7341V13.531L49.9617 13.0483C50.0502 12.4448 50.2111 11.8897 50.4445 11.3828C50.6778 10.8759 50.9795 10.4374 51.3496 10.0672C51.7198 9.68907 52.1583 9.3954 52.6652 9.1862C53.1801 8.97701 53.7675 8.87241 54.4272 8.87241C54.9422 8.87241 55.3445 8.91264 55.6341 8.9931C55.9318 9.06551 56.1169 9.12183 56.1893 9.16206L55.5738 12.5172C55.5014 12.477 55.3404 12.4126 55.091 12.3241C54.8416 12.2356 54.5198 12.1914 54.1255 12.1914C53.4818 12.1914 52.9427 12.3 52.5083 12.5172C52.0738 12.7345 51.7238 13.0241 51.4583 13.3862C51.2008 13.7402 51.0157 14.1345 50.9031 14.569C50.7904 15.0034 50.7341 15.4419 50.7341 15.8845V21.931H46.9807ZM59.2837 16.6448V14.1707H67.7802L67.4182 14.7983C67.4182 14.7339 67.4182 14.6736 67.4182 14.6172C67.4182 14.5529 67.4182 14.4925 67.4182 14.4362C67.4182 13.9776 67.3095 13.5391 67.0923 13.1207C66.875 12.6942 66.5371 12.3483 66.0785 12.0828C65.6279 11.8092 65.0486 11.6724 64.3406 11.6724C63.6325 11.6724 63.021 11.8253 62.5061 12.131C61.9992 12.4287 61.609 12.8592 61.3354 13.4224C61.0699 13.9856 60.9371 14.6655 60.9371 15.4621C60.9371 16.2828 61.0659 16.9868 61.3233 17.5741C61.5888 18.1534 61.9791 18.6 62.494 18.9138C63.017 19.2276 63.6647 19.3845 64.4371 19.3845C64.936 19.3845 65.3664 19.3402 65.7285 19.2517C66.0906 19.1552 66.3842 19.0345 66.6095 18.8897C66.8429 18.7448 67.0199 18.5839 67.1406 18.4069C67.2613 18.2299 67.3337 18.0569 67.3578 17.8879H71.0509C71.0026 18.427 70.8176 18.958 70.4957 19.481C70.1739 19.996 69.7273 20.4626 69.1561 20.881C68.5848 21.2914 67.8888 21.6172 67.0682 21.8586C66.2555 22.1 65.3262 22.2207 64.2802 22.2207C62.8641 22.2207 61.6291 21.9391 60.575 21.3759C59.521 20.8046 58.7044 20.0201 58.125 19.0224C57.5457 18.0167 57.2561 16.858 57.2561 15.5465C57.2561 14.219 57.5498 13.0563 58.1371 12.0586C58.7325 11.0529 59.5572 10.2724 60.6113 9.71724C61.6733 9.15402 62.9003 8.87241 64.2923 8.87241C65.7164 8.87241 66.9475 9.15804 67.9854 9.72931C69.0233 10.2925 69.8239 11.0851 70.3871 12.1069C70.9503 13.1207 71.2319 14.3034 71.2319 15.6552C71.2319 15.8563 71.2279 16.0494 71.2199 16.2345C71.2118 16.4195 71.1998 16.5563 71.1837 16.6448H59.2837ZM76.4401 18.9983H83.3918V21.931H72.4332V19.1552L79.2159 11.9017L79.3004 12.0345H72.6746V9.11379H83.247V11.8897L76.5246 19.119L76.4401 18.9983ZM91.6826 22.2086C90.2987 22.2086 89.0797 21.923 88.0257 21.3517C86.9717 20.7805 86.147 19.996 85.5516 18.9983C84.9642 17.9925 84.6705 16.8339 84.6705 15.5224C84.6705 14.219 84.9642 13.0684 85.5516 12.0707C86.147 11.0649 86.9717 10.2845 88.0257 9.72931C89.0797 9.16609 90.2987 8.88448 91.6826 8.88448C93.0665 8.88448 94.2855 9.16609 95.3395 9.72931C96.3935 10.2845 97.2142 11.0649 97.8016 12.0707C98.397 13.0684 98.6947 14.219 98.6947 15.5224C98.6947 16.8339 98.397 17.9925 97.8016 18.9983C97.2142 19.996 96.3935 20.7805 95.3395 21.3517C94.2855 21.923 93.0665 22.2086 91.6826 22.2086ZM91.6826 19.2397C92.3343 19.2397 92.9016 19.0868 93.3843 18.781C93.8671 18.4753 94.2412 18.0448 94.5068 17.4897C94.7723 16.9264 94.905 16.2707 94.905 15.5224C94.905 14.7741 94.7723 14.1264 94.5068 13.5793C94.2412 13.0241 93.8671 12.5977 93.3843 12.3C92.9016 12.0023 92.3343 11.8534 91.6826 11.8534C91.0389 11.8534 90.4717 12.0023 89.9809 12.3C89.4981 12.5977 89.124 13.0241 88.8585 13.5793C88.593 14.1264 88.4602 14.7741 88.4602 15.5224C88.4602 16.2707 88.593 16.9264 88.8585 17.4897C89.124 18.0448 89.4981 18.4753 89.9809 18.781C90.4717 19.0868 91.0389 19.2397 91.6826 19.2397Z" fill="#23272E"/>
</svg>
