<svg width="124" height="124" viewBox="0 0 124 124" fill="none" xmlns="http://www.w3.org/2000/svg">
<path opacity="0.4" d="M113.669 82.3583C113.669 96.7733 102.096 108.45 87.6809 108.502H87.6293H36.4276C22.0643 108.502 10.3359 96.8766 10.3359 82.4616V82.41C10.3359 82.41 10.3669 59.5423 10.4083 48.0413C10.4134 45.8816 12.8934 44.6726 14.5829 46.016C26.8589 55.7551 48.8121 73.513 49.0859 73.7455C52.7543 76.6853 57.4043 78.3438 62.1576 78.3438C66.9109 78.3438 71.5609 76.6853 75.2293 73.6886C75.5031 73.5078 96.9654 56.2821 109.427 46.3828C111.122 45.0343 113.612 46.2433 113.618 48.3978C113.669 59.811 113.669 82.3583 113.669 82.3583Z" fill="#757FEF"/>
<path d="M110.964 29.3137C106.49 20.8817 97.6861 15.498 87.9934 15.498H36.4301C26.7374 15.498 17.9334 20.8817 13.4591 29.3137C12.4568 31.1995 12.9321 33.5504 14.6009 34.8834L52.9634 65.5682C55.6501 67.7382 58.9051 68.8181 62.1601 68.8181C62.1808 68.8181 62.1963 68.8181 62.2118 68.8181C62.2273 68.8181 62.2479 68.8181 62.2634 68.8181C65.5184 68.8181 68.7734 67.7382 71.4601 65.5682L109.823 34.8834C111.491 33.5504 111.967 31.1995 110.964 29.3137Z" fill="#757FEF"/>
</svg>
