<svg width="32" height="30" viewBox="0 0 32 30" fill="none" xmlns="http://www.w3.org/2000/svg">
<g clip-path="url(#clip0_2_2084)">
<path d="M7.20386 18.9786C7.20386 20.7223 5.77078 22.1467 4.01648 22.1467C2.26219 22.1467 0.829102 20.7223 0.829102 18.9786C0.829102 17.2349 2.26219 15.8105 4.01648 15.8105H7.20386V18.9786Z" fill="#E01E5A"/>
<path d="M8.81006 18.9786C8.81006 17.2349 10.2431 15.8105 11.9974 15.8105C13.7517 15.8105 15.1848 17.2349 15.1848 18.9786V26.9112C15.1848 28.6549 13.7517 30.0794 11.9974 30.0794C10.2431 30.0794 8.81006 28.6549 8.81006 26.9112V18.9786Z" fill="#E01E5A"/>
<path d="M11.9974 6.25691C10.2431 6.25691 8.81006 4.83247 8.81006 3.08876C8.81006 1.34506 10.2431 -0.0793762 11.9974 -0.0793762C13.7517 -0.0793762 15.1848 1.34506 15.1848 3.08876V6.25691H11.9974Z" fill="#36C5F0"/>
<path d="M11.9973 7.85324C13.7516 7.85324 15.1847 9.27768 15.1847 11.0214C15.1847 12.7651 13.7516 14.1895 11.9973 14.1895H4.01648C2.26219 14.1895 0.829102 12.7651 0.829102 11.0214C0.829102 9.27768 2.26219 7.85324 4.01648 7.85324H11.9973Z" fill="#36C5F0"/>
<path d="M24.7964 11.0214C24.7964 9.27768 26.2295 7.85324 27.9838 7.85324C29.7381 7.85324 31.1711 9.27768 31.1711 11.0214C31.1711 12.7651 29.7381 14.1895 27.9838 14.1895H24.7964V11.0214Z" fill="#2EB67D"/>
<path d="M23.1902 11.0214C23.1902 12.7651 21.7571 14.1895 20.0028 14.1895C18.2485 14.1895 16.8154 12.7651 16.8154 11.0214V3.08876C16.8154 1.34506 18.2485 -0.0793762 20.0028 -0.0793762C21.7571 -0.0793762 23.1902 1.34506 23.1902 3.08876V11.0214Z" fill="#2EB67D"/>
<path d="M20.0028 23.7431C21.7571 23.7431 23.1902 25.1675 23.1902 26.9112C23.1902 28.6549 21.7571 30.0793 20.0028 30.0793C18.2485 30.0793 16.8154 28.6549 16.8154 26.9112V23.7431H20.0028Z" fill="#ECB22E"/>
<path d="M20.0028 22.1467C18.2485 22.1467 16.8154 20.7223 16.8154 18.9786C16.8154 17.2349 18.2485 15.8105 20.0028 15.8105H27.9836C29.7379 15.8105 31.171 17.2349 31.171 18.9786C31.171 20.7223 29.7379 22.1467 27.9836 22.1467H20.0028Z" fill="#ECB22E"/>
</g>
<defs>
<clipPath id="clip0_2_2084">
<rect width="30.7692" height="30" fill="white" transform="translate(0.615234)"/>
</clipPath>
</defs>
</svg>
